<svg version="1.1" id="Layer_1" xmlns="http://www.w3.org/2000/svg" xmlns:xlink="http://www.w3.org/1999/xlink" x="0px" y="0px"
	 width="100%" viewBox="0 0 396 403" enable-background="new 0 0 396 403" xml:space="preserve">
<path fill="#FFFFFF" opacity="1.000000" stroke="none" 
	d="
M269.000000,1.000000 
	C311.654297,1.000000 354.308594,1.000000 396.962891,0.999999 
	C396.975281,1.154248 396.998474,1.308496 396.998505,1.462745 
	C397.000031,135.590515 397.000000,269.718262 397.000000,403.923035 
	C265.089630,403.923035 133.179184,403.923035 1.134377,403.923035 
	C1.134377,269.666748 1.134377,135.333389 1.134377,1.000000 
	C60.097073,1.000000 119.079880,1.000000 178.494156,1.361875 
	C177.730652,5.330836 175.210449,6.911747 171.436249,7.039175 
	C166.825455,7.194847 163.227539,12.676303 157.927109,9.711701 
	C157.752319,9.613937 157.088608,10.201974 156.773148,10.572733 
	C152.954529,15.060624 148.897217,18.715506 142.991226,20.961311 
	C138.094513,22.823336 127.503120,23.944584 123.014656,20.573786 
	C120.107300,18.390392 117.360878,18.045860 114.278633,20.938225 
	C111.172119,23.853361 107.427681,26.088686 103.577866,28.903250 
	C101.506081,33.572468 99.086533,39.025436 96.423660,45.026783 
	C98.797134,47.833641 99.597466,54.301537 97.570114,57.545246 
	C96.119049,59.866917 95.171951,62.503574 93.814919,65.334183 
	C89.847260,67.401688 84.566475,66.920746 83.425323,72.621140 
	C83.359703,72.948959 82.141602,72.926460 81.639130,73.304977 
	C76.732758,77.001007 71.007141,80.050362 67.237679,84.685097 
	C63.783752,88.931870 58.459709,92.629990 58.608929,99.302971 
	C58.626583,100.092377 57.119888,101.606102 56.316177,101.608574 
	C51.983936,101.621933 51.593529,105.389313 50.286991,107.924805 
	C48.030640,112.303520 41.902222,115.085487 44.432377,121.664040 
	C44.670238,122.282486 42.609207,123.822899 41.563393,124.883888 
	C40.871944,125.585381 39.486145,126.153793 39.438255,126.852219 
	C39.004692,133.175430 34.344864,137.536026 32.256435,142.906219 
	C29.907196,148.947052 30.075125,155.966766 29.204357,162.680206 
	C29.260647,162.799759 29.077452,162.990234 28.737350,163.130768 
	C25.184124,164.469772 24.400345,166.688934 25.401133,169.876221 
	C25.880352,171.402420 25.942921,173.059433 26.297609,174.946686 
	C26.240967,175.823334 26.080902,176.410507 25.559505,177.066986 
	C24.921206,177.308350 24.471676,177.422821 24.392296,177.660767 
	C21.836676,185.321503 21.915117,193.140488 23.148220,201.344818 
	C23.165840,202.114609 23.086666,202.557129 22.648663,203.058228 
	C18.818495,206.270416 19.020115,209.221619 22.850889,212.256226 
	C22.941011,212.727249 22.958288,212.918930 22.979755,213.459412 
	C24.127319,214.997528 25.270691,216.186829 26.610464,217.580429 
	C26.700924,218.375015 26.850348,219.687500 27.104408,221.256500 
	C27.468752,222.000702 27.728460,222.488388 27.760597,223.247467 
	C24.762276,224.738876 23.416746,226.526611 24.390409,229.779449 
	C25.001602,231.821365 24.933580,234.057205 25.292494,236.185425 
	C32.651115,279.818512 53.238037,315.947510 87.509117,343.909058 
	C120.751205,371.031067 158.975342,384.267426 202.438477,383.005402 
	C206.232452,383.335541 209.615921,383.667755 213.464172,384.000610 
	C220.446426,383.411987 227.035110,385.269165 233.539108,382.172577 
	C237.768311,380.159027 242.991180,380.309387 247.379990,378.530731 
	C251.149597,377.003052 254.417953,375.581970 258.730103,376.511993 
	C260.644745,376.924896 263.180756,374.860260 265.316437,373.702057 
	C266.724762,372.938354 267.783783,371.367035 269.239990,370.885437 
	C273.713470,369.406097 278.369202,368.470428 282.822632,366.940704 
	C285.524628,366.012543 287.856476,363.783813 290.581818,363.199982 
	C294.483643,362.364075 297.309357,361.445679 296.194244,356.593384 
	C296.060059,356.009369 296.717773,354.762390 297.264954,354.576080 
	C303.820709,352.343628 308.653900,343.143402 318.077026,350.038666 
	C315.897919,345.715881 317.218536,343.026093 321.044250,341.394958 
	C319.949127,339.815277 319.106873,338.600311 318.423859,337.615082 
	C321.118591,336.295380 325.101044,335.548859 325.478668,333.950623 
	C327.069427,327.217499 332.164795,323.765961 336.905121,319.943756 
	C338.121887,318.962708 341.118835,319.523041 341.663208,318.502899 
	C343.136841,315.741302 343.790405,312.527191 344.642059,309.457275 
	C344.918976,308.458984 344.640686,307.309784 344.900726,306.303070 
	C345.417206,304.303558 346.131256,302.355072 346.733002,300.135559 
	C346.860687,299.595642 347.019012,299.305695 347.549683,299.015747 
	C349.469299,299.743195 351.016602,300.470612 352.572937,301.202271 
	C352.562195,292.055328 353.335938,290.281097 359.116028,285.185333 
	C359.577179,282.711182 359.610931,280.831177 360.316071,279.250732 
	C360.951721,277.825958 362.778351,276.883453 363.262817,275.451813 
	C363.996185,273.284668 363.648071,270.742157 364.426331,268.601562 
	C365.946442,264.420624 368.127136,260.478851 369.628479,256.292511 
	C370.310120,254.391800 370.203186,252.139114 370.145294,250.054657 
	C369.925934,242.155716 369.878906,234.352737 375.444092,229.790527 
	C374.906921,223.346924 374.229401,217.924789 374.058289,212.486710 
	C373.842072,205.615158 374.364441,205.336304 381.231201,207.738297 
	C379.748901,202.034943 375.075043,199.601089 372.155212,195.681915 
	C374.899017,190.983047 373.841187,184.880997 370.089539,182.664215 
	C370.004181,181.893417 369.999481,181.447815 370.257751,180.787933 
	C370.076721,179.379898 369.632660,178.186142 369.099915,176.670166 
	C368.995605,175.903656 368.979980,175.459366 369.248230,174.774323 
	C369.354340,172.022781 369.176575,169.512009 368.999329,166.626053 
	C368.999878,165.500595 368.999939,164.750290 369.287445,163.726318 
	C369.576691,161.051132 369.909760,158.590668 369.495270,156.263321 
	C368.994263,153.449982 367.860107,150.749390 367.255310,147.805603 
	C367.007050,146.407486 366.503510,145.203751 366.000000,143.583344 
	C366.000000,141.777786 366.000000,140.388885 365.994690,138.621552 
	C364.716003,134.970001 364.828064,130.690277 359.624939,129.990616 
	C357.833252,128.654160 356.416626,127.327080 355.000000,125.600006 
	C355.000000,124.133339 355.000000,123.066673 355.356781,121.940048 
	C358.647003,119.993011 361.648773,117.969429 365.209595,120.170166 
	C368.104980,121.959633 370.911713,123.935158 373.555328,126.077911 
	C376.515045,128.476852 379.246796,131.157013 382.085175,133.721542 
	C384.851501,130.473343 389.214722,128.606674 388.078827,123.085938 
	C387.188324,118.758148 387.353638,114.217064 386.979370,109.776672 
	C386.870667,108.487213 386.951233,106.830635 386.208710,106.002792 
	C381.415070,100.658211 382.332733,94.541565 384.104462,88.652031 
	C385.288086,84.717453 384.321594,82.178085 381.894104,79.201683 
	C379.786987,76.618073 377.908356,73.447517 377.158417,70.248146 
	C375.923279,64.978722 375.690887,64.451324 370.355896,65.739189 
	C365.710541,66.860565 360.977448,68.655106 356.954224,63.827076 
	C353.404205,68.080315 350.272369,67.130280 346.466949,64.338333 
	C344.853516,63.154602 339.983673,63.242645 339.590729,64.110123 
	C337.887329,67.870819 335.525452,66.656151 333.000458,65.612259 
	C333.531525,63.245289 334.062164,61.266052 334.756622,58.675690 
	C327.938049,58.084850 325.856506,53.247120 324.705322,47.602982 
	C324.576538,46.971462 324.330383,46.198048 323.868439,45.825638 
	C318.483734,41.484776 318.804657,35.522377 318.900787,29.497540 
	C318.923737,28.056929 317.713501,26.596642 317.070435,25.145405 
	C316.380219,26.547258 315.228973,27.902935 315.083130,29.359304 
	C314.570740,34.475140 311.274658,36.927200 306.206696,35.567333 
	C304.456940,35.097828 302.734772,34.525509 300.630737,33.995743 
	C298.841003,33.660896 297.420502,33.330448 295.792480,32.720371 
	C292.759277,30.597530 289.161774,29.314865 287.309692,26.764622 
	C285.152283,23.793968 283.250092,22.819820 279.655487,23.966141 
	C277.540649,21.954725 275.770325,19.977324 273.995239,17.625683 
	C271.772980,12.004420 267.803925,7.295263 269.000000,1.000000 
M70.399017,40.726841 
	C71.607460,42.143242 72.585190,44.395100 74.071434,44.805515 
	C77.364067,45.714767 80.905037,45.843945 84.358322,46.011620 
	C86.786469,46.129517 89.236984,45.786655 91.677513,45.649536 
	C91.749062,45.032719 91.820602,44.415897 91.892143,43.799080 
	C89.937721,42.209648 88.066101,39.411797 86.012413,39.271069 
	C81.051056,38.931103 76.004669,39.831844 70.399017,40.726841 
M376.296051,180.432373 
	C376.010712,180.704727 375.725342,180.977081 375.440002,181.249451 
	C375.552917,181.367569 375.757812,181.594574 375.765472,181.588089 
	C376.066406,181.333908 376.349396,181.058426 376.296051,180.432373 
M21.432457,173.703857 
	C21.704853,173.989288 21.977247,174.274719 22.249638,174.560150 
	C22.367752,174.447174 22.594788,174.242233 22.588282,174.234512 
	C22.334053,173.933456 22.058527,173.650391 21.432457,173.703857 
z"/>
<path fill="#FEFDFE" opacity="1.000000" stroke="none" 
	d="
M268.531342,1.000000 
	C267.803925,7.295263 271.772980,12.004420 273.573639,17.625719 
	C266.650757,18.119198 265.802490,18.894754 266.040222,25.154318 
	C266.127197,27.445034 266.666840,29.718555 267.041290,32.320473 
	C268.721710,33.094070 270.360840,33.547112 271.924072,34.375690 
	C270.083282,34.946892 268.275940,35.482986 266.562195,35.269142 
	C262.692413,34.786251 259.263306,35.186069 256.055817,37.790913 
	C259.533661,40.713329 265.669067,37.479820 265.562683,44.001205 
	C261.436615,43.938354 257.747833,43.875675 253.766388,43.828247 
	C252.974930,43.582520 252.476135,43.321537 251.945923,42.690598 
	C249.585495,39.456066 242.747284,35.404163 241.390076,35.587582 
	C236.947357,36.187981 232.470734,36.537670 227.668335,36.999344 
	C226.887161,36.927006 226.444794,36.839077 225.899292,36.398197 
	C223.620071,35.558681 221.105865,35.608932 219.328491,34.489388 
	C212.841370,30.403255 205.709885,31.012878 198.632629,31.012499 
	C192.619232,31.012175 191.540283,32.208481 192.582321,38.093956 
	C193.200806,41.587170 191.408401,42.666981 188.757980,41.597454 
	C187.164154,40.954296 186.407516,38.482918 184.938141,37.226772 
	C182.766083,35.369919 180.137344,32.281712 177.979584,32.496433 
	C170.786819,33.212196 163.646149,34.894241 156.623093,36.731796 
	C151.078506,38.182514 145.784592,40.567577 140.283844,42.219681 
	C137.675476,43.003078 134.507645,44.019653 132.183472,43.218464 
	C127.294815,41.533253 125.484802,44.772823 123.004913,47.420166 
	C121.836838,48.667099 120.703056,50.137794 119.235695,50.867786 
	C117.036118,51.962044 114.556465,52.493317 111.860931,53.373383 
	C110.456520,53.042931 108.473366,52.576302 105.463051,51.867989 
	C106.563591,54.491417 107.112633,55.800220 107.387581,56.455627 
	C106.242027,58.399643 105.343597,59.924301 104.424728,61.416794 
	C104.404297,61.384628 104.353821,61.441730 103.950150,61.305260 
	C100.364319,62.445759 97.182159,63.722729 94.000000,64.999695 
	C95.171951,62.503574 96.119049,59.866917 97.570114,57.545246 
	C99.597466,54.301537 98.797134,47.833641 96.423660,45.026783 
	C99.086533,39.025436 101.506081,33.572468 103.577866,28.903250 
	C107.427681,26.088686 111.172119,23.853361 114.278633,20.938225 
	C117.360878,18.045860 120.107300,18.390392 123.014656,20.573786 
	C127.503120,23.944584 138.094513,22.823336 142.991226,20.961311 
	C148.897217,18.715506 152.954529,15.060624 156.773148,10.572733 
	C157.088608,10.201974 157.752319,9.613937 157.927109,9.711701 
	C163.227539,12.676303 166.825455,7.194847 171.436249,7.039175 
	C175.210449,6.911747 177.730652,5.330836 178.962814,1.361875 
	C208.687561,1.000000 238.375122,1.000000 268.531342,1.000000 
M184.867371,28.738420 
	C185.265015,29.468775 185.490158,30.526463 186.102585,30.849188 
	C186.925217,31.282681 188.046982,31.148483 189.040344,31.257982 
	C189.161942,29.884008 189.876526,27.744665 189.287308,27.288174 
	C187.861313,26.183382 185.827438,25.863190 184.038589,25.226748 
	C184.187790,26.189547 184.336975,27.152346 184.867371,28.738420 
M206.712448,27.009029 
	C207.766373,27.335379 208.921707,28.094246 209.848206,27.877048 
	C210.970764,27.613888 211.899918,26.525745 212.912766,25.794580 
	C211.806946,24.884983 210.499161,23.081882 209.642685,23.275467 
	C208.361786,23.564981 207.398361,25.259054 206.712448,27.009029 
M229.081116,33.530365 
	C230.531448,33.627087 231.981781,33.723808 233.432114,33.820534 
	C233.471527,33.286736 233.510941,32.752941 233.550339,32.219147 
	C230.911346,31.841290 228.272339,31.463434 225.633331,31.085577 
	C225.542953,31.525185 225.452576,31.964792 225.362198,32.404400 
	C226.371277,32.685150 227.380341,32.965904 229.081116,33.530365 
z"/>
<path fill="#A6A6A6" opacity="1.000000" stroke="none" 
	d="
M202.027985,383.007507 
	C158.975342,384.267426 120.751205,371.031067 87.509117,343.909058 
	C53.238037,315.947510 32.651115,279.818512 25.292494,236.185425 
	C24.933580,234.057205 25.001602,231.821365 24.390409,229.779449 
	C23.416746,226.526611 24.762276,224.738876 28.050138,223.224442 
	C29.144274,222.467896 29.721300,222.005798 30.644789,221.432953 
	C39.211006,216.371643 47.430763,211.421097 55.951492,206.442017 
	C56.831165,206.202393 57.409866,205.991318 58.326134,205.694366 
	C62.368031,202.556137 65.837486,202.578552 69.698761,205.695648 
	C72.096756,207.631500 75.176178,208.723251 78.162613,210.445831 
	C85.878342,214.895981 93.381210,219.094162 101.098633,223.548920 
	C104.517235,225.652679 106.800804,227.760101 107.956589,231.818085 
	C118.592804,269.161896 143.128021,291.914093 181.086105,299.970245 
	C187.608566,301.354584 194.362167,301.649902 201.436203,302.499603 
	C200.481400,304.706482 199.769455,306.351990 198.842117,308.271606 
	C193.366592,317.524109 188.063599,326.477844 182.875198,335.497467 
	C181.499496,337.889038 180.476151,340.483276 179.341370,343.294739 
	C180.227448,344.814392 181.063217,346.023773 181.961639,347.575470 
	C186.251556,355.342743 190.370178,362.832703 194.755936,370.162811 
	C196.690918,373.396820 199.168182,376.306335 201.418686,379.464783 
	C201.438126,379.566376 201.520844,379.756012 201.477478,380.170898 
	C201.632050,381.393036 201.830017,382.200287 202.027985,383.007507 
z"/>
<path fill="#14676A" opacity="1.000000" stroke="none" 
	d="
M23.007492,202.999664 
	C23.086666,202.557129 23.165840,202.114609 23.301138,200.970215 
	C24.211788,192.511459 25.066313,184.754562 25.920839,176.997665 
	C26.080902,176.410507 26.240967,175.823334 26.569317,174.639801 
	C27.517555,170.359024 28.297506,166.674622 29.077454,162.990234 
	C29.077452,162.990234 29.260647,162.799759 29.467169,162.385101 
	C36.712654,137.153458 48.483337,114.876587 65.369514,95.328438 
	C76.743607,82.161301 90.076805,71.262054 104.353821,61.441730 
	C104.353821,61.441730 104.404297,61.384628 104.745468,61.306919 
	C127.161613,47.535435 151.019226,38.915348 176.855103,35.780148 
	C179.755035,35.428242 181.372971,36.025013 182.841965,38.652737 
	C189.085709,49.821442 195.461060,60.920139 202.013367,71.910240 
	C203.620712,74.606232 203.399902,76.579353 201.865875,79.131607 
	C198.367920,84.951393 195.176498,90.955414 191.887222,96.897057 
	C191.913925,96.909538 191.890289,96.857552 191.598221,97.036133 
	C188.242050,102.548988 185.016785,107.799179 182.173553,113.248703 
	C180.435791,116.579460 178.138290,118.275291 174.405319,119.285782 
	C150.433640,125.774734 131.614914,139.348846 118.847435,160.891327 
	C118.910965,160.940689 118.831657,160.800674 118.539490,160.983063 
	C108.668686,177.256088 104.250557,194.649277 104.715622,213.376556 
	C103.897629,213.289062 103.435860,213.189941 102.769989,212.817444 
	C96.376938,209.048401 90.187973,205.552719 83.925583,201.932556 
	C83.852142,201.808060 83.566010,201.849258 83.382980,201.590607 
	C82.804970,201.207016 82.409988,201.082077 82.010818,200.980896 
	C82.006645,201.004654 82.042877,200.972672 81.851364,200.691772 
	C77.148422,197.894272 72.637001,195.377655 67.888397,192.574371 
	C65.700150,192.023849 63.337681,190.926208 61.873333,191.648758 
	C57.024696,194.041214 52.499859,197.089935 47.901554,199.918488 
	C47.952324,199.950134 47.899277,199.842880 47.547215,199.896606 
	C39.794846,204.294647 32.394539,208.638947 24.655022,213.006363 
	C23.869062,213.056534 23.422314,213.083572 22.975563,213.110626 
	C22.958288,212.918930 22.941011,212.727249 22.959671,211.818878 
	C22.999569,208.401337 23.003531,205.700500 23.007492,202.999664 
z"/>
<path fill="#F9B03E" opacity="1.000000" stroke="none" 
	d="
M347.177338,299.015747 
	C347.019012,299.305695 346.860687,299.595642 346.412720,300.289368 
	C345.205231,301.859863 344.193146,302.965027 343.383972,304.202820 
	C334.131805,318.356171 322.929047,330.727844 310.087524,341.738678 
	C283.836639,364.247223 253.440933,377.213409 219.358093,381.996368 
	C215.836014,382.490631 213.506058,381.602539 211.663910,378.257080 
	C205.655533,367.345398 199.205887,356.675537 193.273590,345.724365 
	C192.304749,343.935822 192.439453,340.939209 193.213379,338.947479 
	C194.697388,335.128357 197.006042,331.629639 199.079117,327.880432 
	C199.185684,327.762909 199.157837,327.446808 199.442047,327.229126 
	C204.299927,319.301971 208.662994,311.454224 213.577072,303.968201 
	C215.028992,301.756348 217.807388,299.875397 220.370102,299.025574 
	C231.752380,295.251404 242.958115,291.267883 252.039627,283.036621 
	C252.000000,283.016602 252.054657,283.086578 252.396698,283.041687 
	C256.233398,279.730896 259.728058,276.464996 263.243713,273.194366 
	C263.264679,273.189636 263.290497,273.227692 263.616516,273.148041 
	C282.514099,254.385056 290.593719,231.526810 290.371948,204.722366 
	C292.896393,206.014084 294.808411,206.894104 296.625793,207.938782 
	C306.433014,213.576111 316.288940,219.134766 325.970917,224.980789 
	C329.534485,227.132492 332.446625,227.163544 336.036591,224.982971 
	C345.984436,218.940582 356.122650,213.210632 366.214325,207.407074 
	C367.818115,206.484756 369.570343,205.820541 371.928070,204.723221 
	C371.915039,224.677368 369.903625,243.376144 363.607422,261.192047 
	C359.038361,274.120697 352.717224,286.430176 347.177338,299.015747 
z"/>
<path fill="#7ECCB9" opacity="1.000000" stroke="none" 
	d="
M226.002426,36.751152 
	C226.444794,36.839077 226.887161,36.927006 227.950272,37.251568 
	C236.373123,39.345654 244.175232,41.203106 251.977341,43.060558 
	C252.476135,43.321537 252.974930,43.582520 254.070389,44.026848 
	C287.123932,56.085213 314.743652,74.939697 335.241364,102.885384 
	C344.395508,115.365791 351.249084,129.533615 359.145294,143.234406 
	C359.451202,144.018387 359.758606,144.503555 360.052551,145.322144 
	C360.399994,146.421066 360.760925,147.186569 361.118256,148.248199 
	C361.403320,149.031784 361.691986,149.519241 361.985413,150.292267 
	C362.243225,151.067352 362.496277,151.556824 362.781677,152.445862 
	C363.953186,156.566711 365.092407,160.288010 366.204163,164.289032 
	C366.415771,165.051056 366.654846,165.533340 366.896729,166.424469 
	C367.587799,169.560577 368.276062,172.287842 368.964355,175.015091 
	C368.979980,175.459366 368.995605,175.903656 369.053955,177.026611 
	C369.396057,178.804276 369.695435,179.903244 369.994781,181.002228 
	C369.999481,181.447815 370.004181,181.893417 370.038757,183.076385 
	C369.658875,187.343765 373.058258,191.293121 367.593384,194.204117 
	C356.169250,200.289474 345.173004,207.174011 333.852081,213.462143 
	C332.347839,214.297638 329.574005,214.291336 328.068573,213.453003 
	C315.594910,206.506851 303.237976,199.345901 290.977386,192.029266 
	C289.527649,191.164124 288.628357,189.073654 287.896576,187.369675 
	C286.224976,183.477295 284.815399,179.472412 283.291138,175.258698 
	C283.194153,174.669098 283.105469,174.334015 283.010406,173.623962 
	C279.583344,164.475159 275.177551,156.326248 268.094543,149.924866 
	C268.036591,150.010712 268.169830,149.851196 268.111450,149.529144 
	C266.694916,147.823151 265.336761,146.439209 263.883240,144.818390 
	C263.512360,144.392685 263.236816,144.203888 262.834808,143.707947 
	C254.552979,134.842834 245.142944,128.149734 233.799500,123.831680 
	C233.065170,123.461006 232.506622,123.327614 231.650421,122.984993 
	C221.054306,118.186516 210.233688,116.190468 198.579086,116.175331 
	C196.739395,116.063957 195.317673,116.037666 193.883713,115.638649 
	C193.936874,114.524422 194.002274,113.782921 194.052582,113.035278 
	C194.037506,113.029121 194.056320,113.068481 194.354279,112.903549 
	C199.614838,104.307266 204.114777,95.555496 209.669907,87.534508 
	C215.246719,79.482170 217.042664,72.095703 209.987976,64.163048 
	C209.016541,63.070713 208.460999,61.607563 207.718109,60.313099 
	C202.960022,52.022202 198.203400,43.730469 193.086685,34.812241 
	C195.675629,34.812241 197.473801,34.708244 199.256592,34.829788 
	C208.174088,35.437752 217.087540,36.104847 226.002426,36.751152 
z"/>
<path fill="#FEFDFE" opacity="1.000000" stroke="none" 
	d="
M333.000000,66.000000 
	C335.525452,66.656151 337.887329,67.870819 339.590729,64.110123 
	C339.983673,63.242645 344.853516,63.154602 346.466949,64.338333 
	C350.272369,67.130280 353.404205,68.080315 356.954224,63.827076 
	C360.977448,68.655106 365.710541,66.860565 370.355896,65.739189 
	C375.690887,64.451324 375.923279,64.978722 377.158417,70.248146 
	C377.908356,73.447517 379.786987,76.618073 381.894104,79.201683 
	C384.321594,82.178085 385.288086,84.717453 384.104462,88.652031 
	C382.332733,94.541565 381.415070,100.658211 386.208710,106.002792 
	C386.951233,106.830635 386.870667,108.487213 386.979370,109.776672 
	C387.353638,114.217064 387.188324,118.758148 388.078827,123.085938 
	C389.214722,128.606674 384.851501,130.473343 382.085175,133.721542 
	C379.246796,131.157013 376.515045,128.476852 373.555328,126.077911 
	C370.911713,123.935158 368.104980,121.959633 365.209595,120.170166 
	C361.648773,117.969429 358.647003,119.993011 355.088348,121.724930 
	C352.642090,120.046608 350.821045,118.523453 348.780762,116.892273 
	C348.287994,116.584923 348.100830,116.323708 348.000000,115.592827 
	C347.821045,112.376793 348.441559,109.051544 343.999451,108.750565 
	C343.998932,108.501129 343.998779,108.002266 344.066315,107.641479 
	C347.098724,104.745544 348.501923,106.110901 348.970306,109.317902 
	C349.606873,113.676254 353.182739,114.322433 355.926147,116.040665 
	C356.368896,115.811546 356.811676,115.582428 357.254425,115.353310 
	C356.846497,110.962845 356.438599,106.572372 356.023468,102.103905 
	C353.511749,102.409286 352.101288,102.580772 350.264130,102.804138 
	C349.822571,99.576561 350.924927,94.666512 344.947998,96.588669 
	C344.597321,93.913025 344.060760,91.649277 344.055359,89.384270 
	C344.047119,85.923149 344.069061,82.807144 339.758545,81.583176 
	C338.968658,81.358879 337.976349,78.266914 338.488403,77.626068 
	C341.539673,73.807442 338.493317,72.068138 336.350647,69.878937 
	C335.157867,68.660233 334.112061,67.297714 333.000000,66.000000 
M369.940948,78.739868 
	C368.851440,78.505447 367.761932,78.271034 366.672424,78.036621 
	C366.860077,79.181107 367.047729,80.325584 367.235382,81.470047 
	C368.149292,80.813377 369.063202,80.156700 369.940948,78.739868 
M352.610046,78.094200 
	C353.183136,79.010490 353.756226,79.926788 354.329315,80.843079 
	C354.834412,80.337288 355.339539,79.831505 355.844635,79.325722 
	C354.929901,78.750793 354.015198,78.175858 352.610046,78.094200 
z"/>
<path fill="#FDFEFD" opacity="1.000000" stroke="none" 
	d="
M333.000000,66.000000 
	C334.112061,67.297714 335.157867,68.660233 336.350647,69.878937 
	C338.493317,72.068138 341.539673,73.807442 338.488403,77.626068 
	C337.976349,78.266914 338.968658,81.358879 339.758545,81.583176 
	C344.069061,82.807144 344.047119,85.923149 344.055359,89.384270 
	C344.060760,91.649277 344.597321,93.913025 344.745758,96.867523 
	C343.396637,99.705963 342.197723,101.854210 340.690521,103.850410 
	C337.254578,100.465759 334.126953,97.233147 331.308044,93.839325 
	C331.867035,92.610283 332.117218,91.542458 332.367401,90.474632 
	C331.244843,90.649956 330.122284,90.825287 328.725708,90.804291 
	C325.634064,87.405449 322.816437,84.202934 320.399994,80.992432 
	C323.705200,80.567619 326.832336,78.448578 329.174835,82.312477 
	C329.415131,82.708817 331.144989,82.202133 332.183624,82.114471 
	C331.935364,81.184914 331.931488,80.065460 331.387634,79.365601 
	C330.277863,77.937408 329.043701,76.472237 327.543823,75.523232 
	C326.350616,74.768265 324.470673,74.140778 323.280365,74.557014 
	C321.353668,75.230759 319.742554,76.807098 317.657837,77.970665 
	C315.877930,76.959755 314.438385,75.980492 313.139648,74.676651 
	C313.412415,72.785522 313.544403,71.218979 313.676392,69.652435 
	C314.063110,69.839035 314.449799,70.025642 314.836517,70.212250 
	C315.811462,68.070511 317.928162,65.673882 317.519012,63.841118 
	C316.715057,60.239944 313.538330,60.971573 310.639130,61.840782 
	C308.468872,62.491444 306.037140,63.182625 303.912018,62.799843 
	C302.005524,62.456444 300.358521,60.672504 297.997253,59.132996 
	C298.428772,61.227928 298.714386,62.614449 298.649109,63.946724 
	C296.061676,61.139847 293.735870,59.058849 289.870758,58.116695 
	C286.408478,57.272743 283.529205,54.172581 280.292480,52.235279 
	C275.575439,49.411938 270.768585,46.738644 266.000000,44.001373 
	C265.669067,37.479820 259.533661,40.713329 256.055817,37.790913 
	C259.263306,35.186069 262.692413,34.786251 266.562195,35.269142 
	C268.275940,35.482986 270.083282,34.946892 271.852905,34.006584 
	C270.238464,32.841263 268.619232,32.420593 267.000000,31.999920 
	C266.666840,29.718555 266.127197,27.445034 266.040222,25.154318 
	C265.802490,18.894754 266.650757,18.119198 273.578400,17.999958 
	C275.770325,19.977324 277.540649,21.954725 279.655548,24.384789 
	C279.658478,28.224289 280.649872,30.269808 284.596497,30.094816 
	C285.975677,30.033667 287.377289,31.004957 288.803772,31.366011 
	C291.187683,31.969389 293.599762,32.461216 296.000000,33.000000 
	C297.420502,33.330448 298.841003,33.660896 300.687164,34.342476 
	C303.149292,36.932056 308.131622,36.886944 306.702911,41.888123 
	C306.653748,42.060165 307.739929,42.873772 308.266418,42.844212 
	C313.824371,42.532181 314.056915,46.600666 314.311493,50.322540 
	C316.172150,50.897057 318.438721,50.889912 319.146606,51.936733 
	C322.371124,56.705364 330.453491,57.116169 330.560425,64.678932 
	C330.566772,65.130699 332.150330,65.560158 333.000000,66.000000 
M332.681488,85.787247 
	C331.999115,85.703812 331.316711,85.620369 330.634308,85.536934 
	C330.728516,86.085922 330.822723,86.634911 330.916962,87.183899 
	C331.561249,86.925041 332.205566,86.666191 332.681488,85.787247 
z"/>
<path fill="#FBFBF4" opacity="1.000000" stroke="none" 
	d="
M347.549683,299.015747 
	C352.717224,286.430176 359.038361,274.120697 363.607422,261.192047 
	C369.903625,243.376144 371.915039,224.677368 371.928070,204.723221 
	C369.570343,205.820541 367.818115,206.484756 366.214325,207.407074 
	C356.122650,213.210632 345.984436,218.940582 336.036591,224.982971 
	C332.446625,227.163544 329.534485,227.132492 325.970917,224.980789 
	C316.288940,219.134766 306.433014,213.576111 296.625793,207.938782 
	C294.808411,206.894104 292.896393,206.014084 290.371948,204.722366 
	C290.593719,231.526810 282.514099,254.385056 263.520447,272.765869 
	C260.470917,266.699371 260.470917,266.699371 269.211060,264.007538 
	C266.459991,259.080048 269.644287,257.779358 272.047424,257.558411 
	C274.247894,254.555511 275.752289,252.715332 276.991699,250.711304 
	C277.522339,249.853271 277.992981,248.432541 277.640625,247.650558 
	C276.486908,245.089981 278.226013,244.454071 279.644684,242.953217 
	C281.198242,241.309631 283.078705,237.633377 282.338806,236.574615 
	C279.357727,232.308823 282.146729,228.643158 283.053070,225.177002 
	C284.805298,218.476212 289.147308,212.503540 288.084930,204.994568 
	C287.727112,202.465378 288.424377,199.879120 292.036377,200.354950 
	C294.275909,202.580109 296.479034,204.455215 298.682159,206.330307 
	C299.105774,205.851562 299.529388,205.372818 299.952972,204.894089 
	C298.247864,203.005402 296.542755,201.116714 294.837646,199.228027 
	C295.070862,198.842896 295.304077,198.457779 295.537292,198.072662 
	C296.806213,198.444595 298.640564,198.413666 299.243622,199.260056 
	C301.533081,202.473160 303.424194,205.970062 305.656952,209.681122 
	C306.711090,209.546417 308.440643,209.325424 310.465088,209.066757 
	C310.465088,210.826843 310.465088,212.191498 310.465088,214.331131 
	C313.434998,213.550812 315.937927,212.893188 319.985962,211.829605 
	C318.177338,214.151184 317.330536,215.238159 316.483734,216.325134 
	C316.589874,216.737122 316.696014,217.149124 316.802155,217.561127 
	C318.257629,217.092911 319.688263,216.365479 321.174957,216.222748 
	C322.992004,216.048279 325.003510,215.954926 326.668793,216.554459 
	C329.998566,217.753265 333.024261,220.131729 336.408691,220.752991 
	C340.085999,221.428009 339.746094,217.534760 340.572876,215.201248 
	C340.623352,215.058716 340.771179,214.904831 340.911255,214.846497 
	C345.355347,212.995926 349.945251,209.390564 354.218811,209.732239 
	C360.522339,210.236145 362.429047,205.115097 367.744476,203.611771 
	C365.647522,201.995071 364.443573,201.066864 362.744446,199.756882 
	C366.250946,198.332870 369.123047,197.166519 371.995117,196.000153 
	C375.075043,199.601089 379.748901,202.034943 381.231201,207.738297 
	C374.364441,205.336304 373.842072,205.615158 374.058289,212.486710 
	C374.229401,217.924789 374.906921,223.346924 375.444092,229.790527 
	C369.878906,234.352737 369.925934,242.155716 370.145294,250.054657 
	C370.203186,252.139114 370.310120,254.391800 369.628479,256.292511 
	C368.127136,260.478851 365.946442,264.420624 364.426331,268.601562 
	C363.648071,270.742157 363.996185,273.284668 363.262817,275.451813 
	C362.778351,276.883453 360.951721,277.825958 360.316071,279.250732 
	C359.610931,280.831177 359.577179,282.711182 359.116028,285.185333 
	C353.335938,290.281097 352.562195,292.055328 352.572937,301.202271 
	C351.016602,300.470612 349.469299,299.743195 347.549683,299.015747 
z"/>
<path fill="#FBFBF4" opacity="1.000000" stroke="none" 
	d="
M198.972534,327.997955 
	C197.006042,331.629639 194.697388,335.128357 193.213379,338.947479 
	C192.439453,340.939209 192.304749,343.935822 193.273590,345.724365 
	C199.205887,356.675537 205.655533,367.345398 211.663910,378.257080 
	C213.506058,381.602539 215.836014,382.490631 219.358093,381.996368 
	C253.440933,377.213409 283.836639,364.247223 310.087524,341.738678 
	C322.929047,330.727844 334.131805,318.356171 343.383972,304.202820 
	C344.193146,302.965027 345.205231,301.859863 346.443359,300.539307 
	C346.131256,302.355072 345.417206,304.303558 344.900726,306.303070 
	C344.640686,307.309784 344.918976,308.458984 344.642059,309.457275 
	C343.790405,312.527191 343.136841,315.741302 341.663208,318.502899 
	C341.118835,319.523041 338.121887,318.962708 336.905121,319.943756 
	C332.164795,323.765961 327.069427,327.217499 325.478668,333.950623 
	C325.101044,335.548859 321.118591,336.295380 318.423859,337.615082 
	C319.106873,338.600311 319.949127,339.815277 321.044250,341.394958 
	C317.218536,343.026093 315.897919,345.715881 318.077026,350.038666 
	C308.653900,343.143402 303.820709,352.343628 297.264954,354.576080 
	C296.717773,354.762390 296.060059,356.009369 296.194244,356.593384 
	C297.309357,361.445679 294.483643,362.364075 290.581818,363.199982 
	C287.856476,363.783813 285.524628,366.012543 282.822632,366.940704 
	C278.369202,368.470428 273.713470,369.406097 269.239990,370.885437 
	C267.783783,371.367035 266.724762,372.938354 265.316437,373.702057 
	C263.180756,374.860260 260.644745,376.924896 258.730103,376.511993 
	C254.417953,375.581970 251.149597,377.003052 247.379990,378.530731 
	C242.991180,380.309387 237.768311,380.159027 233.539108,382.172577 
	C227.035110,385.269165 220.446426,383.411987 213.314484,383.694550 
	C210.045929,379.398865 207.321716,375.454315 204.756149,371.409149 
	C201.806534,366.758484 199.345139,361.755432 196.036880,357.386078 
	C192.116974,352.208923 191.823410,352.431213 191.101868,346.992615 
	C189.566010,347.597931 188.105621,348.173492 186.107513,348.960968 
	C185.655731,347.533325 185.254669,346.265991 184.853622,344.998627 
	C185.400238,345.134827 185.946869,345.270996 186.493500,345.407196 
	C187.669434,343.860718 189.223587,342.472473 189.949524,340.737701 
	C192.022125,335.784729 193.061813,330.202820 198.972534,327.997955 
z"/>
<path fill="#F5FBFB" opacity="1.000000" stroke="none" 
	d="
M372.155212,195.681915 
	C369.123047,197.166519 366.250946,198.332870 362.744446,199.756882 
	C364.443573,201.066864 365.647522,201.995071 367.744476,203.611771 
	C362.429047,205.115097 360.522339,210.236145 354.218811,209.732239 
	C349.945251,209.390564 345.355347,212.995926 340.911255,214.846497 
	C340.771179,214.904831 340.623352,215.058716 340.572876,215.201248 
	C339.746094,217.534760 340.085999,221.428009 336.408691,220.752991 
	C333.024261,220.131729 329.998566,217.753265 326.668793,216.554459 
	C325.003510,215.954926 322.992004,216.048279 321.174957,216.222748 
	C319.688263,216.365479 318.257629,217.092911 316.802155,217.561127 
	C316.696014,217.149124 316.589874,216.737122 316.483734,216.325134 
	C317.330536,215.238159 318.177338,214.151184 319.985962,211.829605 
	C315.937927,212.893188 313.434998,213.550812 310.465088,214.331131 
	C310.465088,212.191498 310.465088,210.826843 310.465088,209.066757 
	C308.440643,209.325424 306.711090,209.546417 305.656952,209.681122 
	C303.424194,205.970062 301.533081,202.473160 299.243622,199.260056 
	C298.640564,198.413666 296.806213,198.444595 295.537292,198.072662 
	C295.304077,198.457779 295.070862,198.842896 294.837646,199.228027 
	C296.542755,201.116714 298.247864,203.005402 299.952972,204.894089 
	C299.529388,205.372818 299.105774,205.851562 298.682159,206.330307 
	C296.479034,204.455215 294.275909,202.580109 292.030090,199.966812 
	C291.738098,198.468765 291.589233,197.100235 291.224457,197.040070 
	C285.434052,196.084763 286.459961,190.976669 284.955109,187.303818 
	C283.371826,183.439514 280.989014,179.858917 283.299408,175.513214 
	C284.815399,179.472412 286.224976,183.477295 287.896576,187.369675 
	C288.628357,189.073654 289.527649,191.164124 290.977386,192.029266 
	C303.237976,199.345901 315.594910,206.506851 328.068573,213.453003 
	C329.574005,214.291336 332.347839,214.297638 333.852081,213.462143 
	C345.173004,207.174011 356.169250,200.289474 367.593384,194.204117 
	C373.058258,191.293121 369.658875,187.343765 370.119446,183.401611 
	C373.841187,184.880997 374.899017,190.983047 372.155212,195.681915 
M359.770813,202.980682 
	C358.610840,203.459793 357.450867,203.938904 356.290894,204.418015 
	C356.646149,205.010529 357.001404,205.603027 357.356659,206.195526 
	C358.196106,205.349518 359.035553,204.503510 359.770813,202.980682 
z"/>
<path fill="#FCFCFC" opacity="1.000000" stroke="none" 
	d="
M199.079102,327.880432 
	C193.061813,330.202820 192.022125,335.784729 189.949524,340.737701 
	C189.223587,342.472473 187.669434,343.860718 186.493500,345.407196 
	C185.946869,345.270996 185.400238,345.134827 184.853622,344.998627 
	C185.254669,346.265991 185.655731,347.533325 186.107513,348.960968 
	C188.105621,348.173492 189.566010,347.597931 191.101868,346.992615 
	C191.823410,352.431213 192.116974,352.208923 196.036880,357.386078 
	C199.345139,361.755432 201.806534,366.758484 204.756149,371.409149 
	C207.321716,375.454315 210.045929,379.398865 212.849701,383.693909 
	C209.615921,383.667755 206.232452,383.335541 202.438477,383.005402 
	C201.830017,382.200287 201.632050,381.393036 201.843506,380.337250 
	C203.313324,380.318207 204.373749,380.547729 205.434158,380.777222 
	C205.444580,380.110413 205.455002,379.443604 205.465408,378.776794 
	C204.110016,378.972260 202.754639,379.167725 201.399246,379.363190 
	C199.168182,376.306335 196.690918,373.396820 194.755936,370.162811 
	C190.370178,362.832703 186.251556,355.342743 181.992661,347.176025 
	C181.071014,345.284302 180.181015,344.134369 179.291046,342.984436 
	C180.476151,340.483276 181.499496,337.889038 182.875198,335.497467 
	C188.063599,326.477844 193.366592,317.524109 199.231689,308.279816 
	C201.891525,308.342987 203.946381,308.672119 205.995300,309.380859 
	C205.514572,311.404083 205.039764,313.047668 204.384354,315.316467 
	C203.235443,313.828278 202.608734,313.016449 201.993439,312.219452 
	C197.051620,315.001801 200.686813,317.720001 200.909637,320.238739 
	C200.325714,322.641418 199.741776,325.044128 199.157837,327.446808 
	C199.157837,327.446808 199.185684,327.762909 199.079102,327.880432 
z"/>
<path fill="#F5FBFB" opacity="1.000000" stroke="none" 
	d="
M103.950150,61.305260 
	C90.076805,71.262054 76.743607,82.161301 65.369514,95.328438 
	C48.483337,114.876587 36.712654,137.153458 29.410877,162.265564 
	C30.075125,155.966766 29.907196,148.947052 32.256435,142.906219 
	C34.344864,137.536026 39.004692,133.175430 39.438255,126.852219 
	C39.486145,126.153793 40.871944,125.585381 41.563393,124.883888 
	C42.609207,123.822899 44.670238,122.282486 44.432377,121.664040 
	C41.902222,115.085487 48.030640,112.303520 50.286991,107.924805 
	C51.593529,105.389313 51.983936,101.621933 56.316177,101.608574 
	C57.119888,101.606102 58.626583,100.092377 58.608929,99.302971 
	C58.459709,92.629990 63.783752,88.931870 67.237679,84.685097 
	C71.007141,80.050362 76.732758,77.001007 81.639130,73.304977 
	C82.141602,72.926460 83.359703,72.948959 83.425323,72.621140 
	C84.566475,66.920746 89.847260,67.401688 93.814919,65.334183 
	C97.182159,63.722729 100.364319,62.445759 103.950150,61.305260 
z"/>
<path fill="#FCFCFC" opacity="1.000000" stroke="none" 
	d="
M22.979755,213.459412 
	C23.422314,213.083572 23.869062,213.056534 24.874668,213.277908 
	C26.518381,213.397400 27.747671,213.554642 28.664145,213.092087 
	C33.773209,210.513428 38.932148,207.989166 43.799156,204.998901 
	C45.557915,203.918350 46.554756,201.597672 47.899277,199.842880 
	C47.899277,199.842880 47.952324,199.950134 48.320255,199.955811 
	C50.587246,199.614960 52.581570,199.525223 54.363880,198.863998 
	C57.314083,197.769501 60.127678,196.306793 63.218391,195.107498 
	C63.711849,195.415466 63.899403,195.677094 64.044205,196.364441 
	C65.709000,200.867157 68.595932,198.116974 71.034828,198.353729 
	C71.312607,200.377945 71.554955,202.046600 71.790298,203.667053 
	C77.660278,204.394836 77.726425,204.466553 77.949745,210.193863 
	C75.176178,208.723251 72.096756,207.631500 69.698761,205.695648 
	C65.837486,202.578552 62.368031,202.556137 58.250473,205.368195 
	C56.758369,204.964737 55.679489,204.801559 54.600613,204.638382 
	C54.950581,205.249100 55.300545,205.859833 55.650513,206.470551 
	C47.430763,211.421097 39.211006,216.371643 30.484457,221.121796 
	C28.985033,220.947617 27.992403,220.973816 26.999771,221.000000 
	C26.850348,219.687500 26.700924,218.375015 26.610464,217.580429 
	C25.270691,216.186829 24.127319,214.997528 22.979755,213.459412 
z"/>
<path fill="#FEFDFE" opacity="1.000000" stroke="none" 
	d="
M333.000458,65.612259 
	C332.150330,65.560158 330.566772,65.130699 330.560425,64.678932 
	C330.453491,57.116169 322.371124,56.705364 319.146606,51.936733 
	C318.438721,50.889912 316.172150,50.897057 314.311493,50.322540 
	C314.056915,46.600666 313.824371,42.532181 308.266418,42.844212 
	C307.739929,42.873772 306.653748,42.060165 306.702911,41.888123 
	C308.131622,36.886944 303.149292,36.932056 301.056396,34.346878 
	C302.734772,34.525509 304.456940,35.097828 306.206696,35.567333 
	C311.274658,36.927200 314.570740,34.475140 315.083130,29.359304 
	C315.228973,27.902935 316.380219,26.547258 317.070435,25.145405 
	C317.713501,26.596642 318.923737,28.056929 318.900787,29.497540 
	C318.804657,35.522377 318.483734,41.484776 323.868439,45.825638 
	C324.330383,46.198048 324.576538,46.971462 324.705322,47.602982 
	C325.856506,53.247120 327.938049,58.084850 334.756622,58.675690 
	C334.062164,61.266052 333.531525,63.245289 333.000458,65.612259 
z"/>
<path fill="#FEFDFE" opacity="1.000000" stroke="none" 
	d="
M361.980682,150.006683 
	C361.691986,149.519241 361.403320,149.031784 361.334351,148.072510 
	C361.058044,146.730026 360.562012,145.859375 360.065979,144.988739 
	C359.758606,144.503555 359.451202,144.018387 359.393372,142.982880 
	C359.088165,140.288651 358.683136,138.091553 357.944641,136.012939 
	C356.744324,132.634491 355.325745,129.333618 354.249451,126.000000 
	C354.666412,126.000000 354.833221,126.000000 355.000000,126.000000 
	C356.416626,127.327080 357.833252,128.654160 359.624939,130.430954 
	C359.343170,135.550446 360.142242,139.144348 366.000000,139.000000 
	C366.000000,140.388885 366.000000,141.777786 365.734619,143.804688 
	C365.979492,145.628479 366.489746,146.814240 367.000000,148.000000 
	C367.860107,150.749390 368.994263,153.449982 369.495270,156.263321 
	C369.909760,158.590668 369.576691,161.051132 368.957214,163.725769 
	C367.899292,163.996094 367.459015,163.993286 367.012634,163.591660 
	C367.004395,162.128677 367.002197,161.064484 367.228424,159.829361 
	C366.974487,159.105469 366.492126,158.552505 366.002808,157.630402 
	C365.663513,155.841217 365.331146,154.421188 364.991608,152.628540 
	C363.983185,151.506195 362.981934,150.756439 361.980682,150.006683 
z"/>
<path fill="#FEFDFE" opacity="1.000000" stroke="none" 
	d="
M70.695793,40.479607 
	C76.004669,39.831844 81.051056,38.931103 86.012413,39.271069 
	C88.066101,39.411797 89.937721,42.209648 91.892143,43.799080 
	C91.820602,44.415897 91.749062,45.032719 91.677513,45.649536 
	C89.236984,45.786655 86.786469,46.129517 84.358322,46.011620 
	C80.905037,45.843945 77.364067,45.714767 74.071434,44.805515 
	C72.585190,44.395100 71.607460,42.143242 70.695793,40.479607 
z"/>
<path fill="#FEFDFE" opacity="1.000000" stroke="none" 
	d="
M295.792480,32.720371 
	C293.599762,32.461216 291.187683,31.969389 288.803772,31.366011 
	C287.377289,31.004957 285.975677,30.033667 284.596497,30.094816 
	C280.649872,30.269808 279.658478,28.224289 280.000061,24.418800 
	C283.250092,22.819820 285.152283,23.793968 287.309692,26.764622 
	C289.161774,29.314865 292.759277,30.597530 295.792480,32.720371 
z"/>
<path fill="#F5FBFB" opacity="1.000000" stroke="none" 
	d="
M25.559505,177.066986 
	C25.066313,184.754562 24.211788,192.511459 23.204344,200.642960 
	C21.915117,193.140488 21.836676,185.321503 24.392296,177.660767 
	C24.471676,177.422821 24.921206,177.308350 25.559505,177.066986 
z"/>
<path fill="#FDFDFE" opacity="1.000000" stroke="none" 
	d="
M365.994690,138.621552 
	C360.142242,139.144348 359.343170,135.550446 360.000000,130.440338 
	C364.828064,130.690277 364.716003,134.970001 365.994690,138.621552 
z"/>
<path fill="#F5FBFB" opacity="1.000000" stroke="none" 
	d="
M28.737350,163.130768 
	C28.297506,166.674622 27.517555,170.359024 26.465897,174.350311 
	C25.942921,173.059433 25.880352,171.402420 25.401133,169.876221 
	C24.400345,166.688934 25.184124,164.469772 28.737350,163.130768 
z"/>
<path fill="#FDFDFE" opacity="1.000000" stroke="none" 
	d="
M355.000000,125.600006 
	C354.833221,126.000000 354.666412,126.000000 354.109985,125.678650 
	C352.146912,122.571632 350.573456,119.785965 349.000000,117.000305 
	C350.821045,118.523453 352.642090,120.046608 354.731567,121.784882 
	C355.000000,123.066673 355.000000,124.133339 355.000000,125.600006 
z"/>
<path fill="#F5FBFB" opacity="1.000000" stroke="none" 
	d="
M22.648664,203.058228 
	C23.003531,205.700500 22.999569,208.401337 22.886826,211.539520 
	C19.020115,209.221619 18.818495,206.270416 22.648664,203.058228 
z"/>
<path fill="#F5FBFB" opacity="1.000000" stroke="none" 
	d="
M369.248230,174.774323 
	C368.276062,172.287842 367.587799,169.560577 367.173950,166.517303 
	C367.965179,166.467926 368.481964,166.734573 368.998779,167.001221 
	C369.176575,169.512009 369.354340,172.022781 369.248230,174.774323 
z"/>
<path fill="#FDFDFE" opacity="1.000000" stroke="none" 
	d="
M367.255280,147.805603 
	C366.489746,146.814240 365.979492,145.628479 365.734619,144.221344 
	C366.503510,145.203751 367.007050,146.407486 367.255280,147.805603 
z"/>
<path fill="#F5FBFB" opacity="1.000000" stroke="none" 
	d="
M370.257751,180.787933 
	C369.695435,179.903244 369.396057,178.804276 369.142639,177.348846 
	C369.632660,178.186142 370.076721,179.379898 370.257751,180.787933 
z"/>
<path fill="#F5FBFB" opacity="1.000000" stroke="none" 
	d="
M27.104408,221.256516 
	C27.992403,220.973816 28.985033,220.947617 30.137995,221.232559 
	C29.721300,222.005798 29.144274,222.467896 28.277706,222.953033 
	C27.728460,222.488388 27.468752,222.000702 27.104408,221.256516 
z"/>
<path fill="#FDFDFE" opacity="1.000000" stroke="none" 
	d="
M368.999298,166.626038 
	C368.481964,166.734573 367.965179,166.467926 367.171143,166.108459 
	C366.654846,165.533340 366.415771,165.051056 366.400482,164.286926 
	C366.624268,164.005096 367.018738,163.990463 367.018738,163.990463 
	C367.459015,163.993286 367.899292,163.996094 368.669800,163.999451 
	C368.999939,164.750290 368.999878,165.500595 368.999298,166.626038 
z"/>
<path fill="#F5FBFB" opacity="1.000000" stroke="none" 
	d="
M376.465393,180.609055 
	C376.349396,181.058426 376.066406,181.333908 375.765472,181.588089 
	C375.757812,181.594574 375.552917,181.367569 375.440002,181.249451 
	C375.725342,180.977081 376.010712,180.704727 376.465393,180.609055 
z"/>
<path fill="#F5FBFB" opacity="1.000000" stroke="none" 
	d="
M21.609127,173.534409 
	C22.058527,173.650391 22.334053,173.933456 22.588282,174.234512 
	C22.594788,174.242233 22.367752,174.447174 22.249641,174.560150 
	C21.977247,174.274719 21.704853,173.989288 21.609127,173.534409 
z"/>
<path fill="#F5FBFB" opacity="1.000000" stroke="none" 
	d="
M225.899292,36.398193 
	C217.087540,36.104847 208.174088,35.437752 199.256592,34.829788 
	C197.473801,34.708244 195.675629,34.812241 193.086685,34.812241 
	C198.203400,43.730469 202.960022,52.022202 207.718109,60.313099 
	C208.460999,61.607563 209.016541,63.070713 209.987976,64.163048 
	C217.042664,72.095703 215.246719,79.482170 209.669907,87.534508 
	C204.114777,95.555496 199.614838,104.307266 194.333282,112.465759 
	C193.330460,106.181908 198.057587,102.452248 200.466827,97.847038 
	C201.858353,95.187164 201.878922,94.008614 200.754181,92.939362 
	C197.318314,94.463509 194.589417,95.674042 191.860519,96.884567 
	C195.176498,90.955414 198.367920,84.951393 201.865875,79.131607 
	C203.399902,76.579353 203.620712,74.606232 202.013367,71.910240 
	C195.461060,60.920139 189.085709,49.821442 182.841965,38.652737 
	C181.372971,36.025013 179.755035,35.428242 176.855103,35.780148 
	C151.019226,38.915348 127.161613,47.535435 104.765900,61.339085 
	C105.343597,59.924301 106.242027,58.399643 107.387581,56.455627 
	C107.112633,55.800220 106.563591,54.491417 105.463051,51.867989 
	C108.473366,52.576302 110.456520,53.042931 111.860931,53.373383 
	C114.556465,52.493317 117.036118,51.962044 119.235695,50.867786 
	C120.703056,50.137794 121.836838,48.667099 123.004913,47.420166 
	C125.484802,44.772823 127.294815,41.533253 132.183472,43.218464 
	C134.507645,44.019653 137.675476,43.003078 140.283844,42.219681 
	C145.784592,40.567577 151.078506,38.182514 156.623093,36.731796 
	C163.646149,34.894241 170.786819,33.212196 177.979584,32.496433 
	C180.137344,32.281712 182.766083,35.369919 184.938141,37.226772 
	C186.407516,38.482918 187.164154,40.954296 188.757980,41.597454 
	C191.408401,42.666981 193.200806,41.587170 192.582321,38.093956 
	C191.540283,32.208481 192.619232,31.012175 198.632629,31.012499 
	C205.709885,31.012878 212.841370,30.403255 219.328491,34.489388 
	C221.105865,35.608932 223.620071,35.558681 225.899292,36.398193 
z"/>
<path fill="#F5FBFB" opacity="1.000000" stroke="none" 
	d="
M348.780762,116.892273 
	C350.573456,119.785965 352.146912,122.571632 353.859833,125.678650 
	C355.325745,129.333618 356.744324,132.634491 357.944641,136.012939 
	C358.683136,138.091553 359.088165,140.288651 359.394867,142.684082 
	C351.249084,129.533615 344.395508,115.365791 335.241364,102.885384 
	C314.743652,74.939697 287.123932,56.085213 254.363068,44.011597 
	C257.747833,43.875675 261.436615,43.938354 265.562683,44.001205 
	C270.768585,46.738644 275.575439,49.411938 280.292480,52.235279 
	C283.529205,54.172581 286.408478,57.272743 289.870758,58.116695 
	C293.735870,59.058849 296.061676,61.139847 298.844971,64.218895 
	C303.927399,68.030624 308.463104,71.515930 312.998840,75.001236 
	C314.438385,75.980492 315.877930,76.959755 317.684082,78.291611 
	C318.700043,79.429619 319.349426,80.215012 319.998779,81.000412 
	C322.816437,84.202934 325.634064,87.405449 328.846161,91.087746 
	C329.826813,92.378525 330.413055,93.189537 330.999298,94.000549 
	C334.126953,97.233147 337.254578,100.465759 340.719849,104.179558 
	C342.037903,105.774590 343.018341,106.888420 343.998779,108.002258 
	C343.998779,108.002266 343.998932,108.501129 344.154846,109.063690 
	C345.540527,111.751030 346.770264,113.875816 348.000000,116.000610 
	C348.100830,116.323708 348.287994,116.584923 348.780762,116.892273 
z"/>
<path fill="#F5FBFB" opacity="1.000000" stroke="none" 
	d="
M251.945923,42.690598 
	C244.175232,41.203106 236.373123,39.345654 228.289093,37.235977 
	C232.470734,36.537670 236.947357,36.187981 241.390076,35.587582 
	C242.747284,35.404163 249.585495,39.456066 251.945923,42.690598 
z"/>
<path fill="#FFFFFF" opacity="1.000000" stroke="none" 
	d="
M184.676758,28.426785 
	C184.336975,27.152346 184.187790,26.189547 184.038589,25.226749 
	C185.827438,25.863190 187.861313,26.183382 189.287308,27.288174 
	C189.876526,27.744665 189.161942,29.884008 189.040344,31.257982 
	C188.046982,31.148483 186.925217,31.282681 186.102585,30.849188 
	C185.490158,30.526463 185.265015,29.468775 184.676758,28.426785 
z"/>
<path fill="#FFFFFF" opacity="1.000000" stroke="none" 
	d="
M206.506165,26.682358 
	C207.398361,25.259054 208.361786,23.564981 209.642685,23.275467 
	C210.499161,23.081882 211.806946,24.884983 212.912766,25.794580 
	C211.899918,26.525745 210.970764,27.613888 209.848206,27.877048 
	C208.921707,28.094246 207.766373,27.335379 206.506165,26.682358 
z"/>
<path fill="#FFFFFF" opacity="1.000000" stroke="none" 
	d="
M228.735260,33.388512 
	C227.380341,32.965904 226.371277,32.685150 225.362198,32.404400 
	C225.452576,31.964792 225.542953,31.525185 225.633331,31.085577 
	C228.272339,31.463434 230.911346,31.841290 233.550339,32.219147 
	C233.510941,32.752941 233.471527,33.286736 233.432114,33.820534 
	C231.981781,33.723808 230.531448,33.627087 228.735260,33.388512 
z"/>
<path fill="#FFFFFF" opacity="1.000000" stroke="none" 
	d="
M267.041260,32.320477 
	C268.619232,32.420593 270.238464,32.841263 271.928833,33.631042 
	C270.360840,33.547112 268.721710,33.094070 267.041260,32.320477 
z"/>
<path fill="#FEFEFE" opacity="1.000000" stroke="none" 
	d="
M191.887222,96.897049 
	C194.589417,95.674042 197.318314,94.463509 200.754181,92.939362 
	C201.878922,94.008614 201.858353,95.187164 200.466827,97.847038 
	C198.057587,102.452248 193.330460,106.181908 194.035324,112.630692 
	C194.056320,113.068481 194.037506,113.029121 193.742874,113.053482 
	C193.597473,114.055687 193.746704,115.033531 193.895935,116.011383 
	C195.317673,116.037666 196.739395,116.063957 198.691620,116.536537 
	C203.189148,117.655258 207.247864,117.999931 211.101395,119.078049 
	C216.680450,120.638916 223.168655,120.178795 227.325089,125.865456 
	C228.844711,124.987396 230.396393,124.090805 231.948090,123.194221 
	C232.506622,123.327614 233.065170,123.461006 233.812408,124.207161 
	C235.525726,126.237198 236.905243,127.866516 238.604156,129.029099 
	C242.554901,131.732605 246.627563,134.263397 250.710999,136.765976 
	C254.756027,139.245026 258.874847,141.603653 262.961304,144.015106 
	C263.236816,144.203888 263.512360,144.392685 263.892334,145.181946 
	C265.387787,147.138672 266.778809,148.494934 268.169830,149.851196 
	C268.169830,149.851196 268.036591,150.010712 268.042633,150.349945 
	C266.703430,155.361557 267.440155,159.237259 272.139465,161.687973 
	C272.682983,161.971390 273.390869,162.656906 273.391083,163.156265 
	C273.393768,169.658432 280.862427,169.470963 283.016754,173.998917 
	C283.105469,174.334015 283.194153,174.669098 283.291138,175.258698 
	C280.989014,179.858917 283.371826,183.439514 284.955109,187.303818 
	C286.459961,190.976669 285.434052,196.084763 291.224457,197.040070 
	C291.589233,197.100235 291.738098,198.468765 291.993713,199.616745 
	C288.424377,199.879120 287.727112,202.465378 288.084930,204.994568 
	C289.147308,212.503540 284.805298,218.476212 283.053070,225.177002 
	C282.146729,228.643158 279.357727,232.308823 282.338806,236.574615 
	C283.078705,237.633377 281.198242,241.309631 279.644684,242.953217 
	C278.226013,244.454071 276.486908,245.089981 277.640625,247.650558 
	C277.992981,248.432541 277.522339,249.853271 276.991699,250.711304 
	C275.752289,252.715332 274.247894,254.555511 272.047424,257.558411 
	C269.644287,257.779358 266.459991,259.080048 269.211060,264.007538 
	C260.470917,266.699371 260.470917,266.699371 263.194397,272.845520 
	C263.290497,273.227692 263.264679,273.189636 262.872375,273.098877 
	C261.055267,272.329407 259.630493,271.650726 258.316986,271.025055 
	C256.909973,272.117737 255.886658,273.344269 254.584946,273.840393 
	C251.040588,275.191284 250.417892,277.391541 251.908752,280.652283 
	C252.224030,281.341827 252.019608,282.268921 252.054657,283.086578 
	C252.054657,283.086578 252.000000,283.016602 251.619293,283.014130 
	C248.981827,283.690582 246.376572,283.868958 244.538284,285.148865 
	C240.230194,288.148438 236.480789,292.065155 230.552734,291.433167 
	C230.100677,291.384949 229.354813,291.921631 229.116470,292.379547 
	C227.000031,296.445984 223.158020,296.591125 219.739136,295.599701 
	C215.848038,294.471375 214.141617,295.754272 213.060486,299.133301 
	C212.888062,299.672150 212.505112,300.143677 212.210403,300.662292 
	C211.041794,299.588379 210.131943,298.752258 209.017212,297.727844 
	C208.596695,300.322296 208.298645,302.161133 207.631409,304.071136 
	C206.842102,305.761932 206.421967,307.381561 206.000916,309.000610 
	C206.000000,309.000000 206.001221,309.001221 206.001221,309.001221 
	C203.946381,308.672119 201.891525,308.342987 199.447113,308.005676 
	C199.769455,306.351990 200.481400,304.706482 201.436203,302.499603 
	C194.362167,301.649902 187.608566,301.354584 181.086105,299.970245 
	C143.128021,291.914093 118.592804,269.161896 107.956589,231.818085 
	C106.800804,227.760101 104.517235,225.652679 101.134857,223.095276 
	C101.304657,219.591690 101.652786,216.798309 102.211433,213.909332 
	C102.692459,213.638794 102.876503,213.397827 102.974083,213.090820 
	C103.435860,213.189941 103.897629,213.289062 104.693329,213.724854 
	C105.902428,215.357986 106.777588,216.654465 108.059784,218.553940 
	C108.633736,216.965210 108.926781,216.525665 108.933182,216.082016 
	C109.093979,204.925674 109.350166,193.775055 112.027428,182.860886 
	C112.649628,180.324448 112.977966,177.360153 114.520721,175.476715 
	C118.132385,171.067474 118.245270,165.930191 118.831657,160.800674 
	C118.831657,160.800674 118.910965,160.940689 119.245789,160.935333 
	C121.336525,159.921295 124.543892,158.978485 124.593201,157.892319 
	C124.790283,153.550522 127.277802,151.862259 130.728439,150.491455 
	C131.724030,150.095932 133.027298,149.013733 133.143860,148.111313 
	C133.755386,143.376221 136.680954,142.599411 141.277390,143.819336 
	C137.699905,136.690231 144.875671,138.421127 146.876068,135.901382 
	C149.030060,133.188156 151.319977,129.016495 155.374832,131.144714 
	C162.141571,123.835297 169.619308,120.789299 179.194870,123.988670 
	C182.934753,117.112198 186.554520,110.456566 190.313370,103.545242 
	C190.930481,103.573990 192.174942,103.631973 193.492340,103.693352 
	C192.908493,101.202133 192.399399,99.029846 191.890289,96.857552 
	C191.890289,96.857552 191.913925,96.909538 191.887222,96.897049 
z"/>
<path fill="#FCFCFC" opacity="1.000000" stroke="none" 
	d="
M102.000916,214.004944 
	C101.652786,216.798309 101.304657,219.591690 100.920303,222.838699 
	C93.381210,219.094162 85.878342,214.895981 78.162613,210.445831 
	C77.726425,204.466553 77.660278,204.394836 71.790298,203.667053 
	C71.554955,202.046600 71.312607,200.377945 71.241806,198.105408 
	C74.556770,199.882721 77.226852,203.713379 82.042877,200.972672 
	C82.042877,200.972672 82.006645,201.004654 82.192444,201.240189 
	C82.774162,201.600235 83.170082,201.724747 83.566010,201.849258 
	C83.566010,201.849258 83.852142,201.808060 83.963005,202.280014 
	C88.580643,208.843063 95.302216,211.405792 102.000916,214.004944 
z"/>
<path fill="#FBFBF4" opacity="1.000000" stroke="none" 
	d="
M201.418686,379.464783 
	C202.754639,379.167725 204.110016,378.972260 205.465408,378.776794 
	C205.455002,379.443604 205.444580,380.110413 205.434158,380.777222 
	C204.373749,380.547729 203.313324,380.318207 201.886871,379.922363 
	C201.520844,379.756012 201.438126,379.566376 201.418686,379.464783 
z"/>
<path fill="#FCFBFC" opacity="1.000000" stroke="none" 
	d="
M55.951488,206.442001 
	C55.300545,205.859833 54.950581,205.249100 54.600613,204.638382 
	C55.679489,204.801559 56.758369,204.964737 57.912907,205.454071 
	C57.409866,205.991318 56.831165,206.202393 55.951488,206.442001 
z"/>
<path fill="#FBFBF4" opacity="1.000000" stroke="none" 
	d="
M179.341354,343.294739 
	C180.181015,344.134369 181.071014,345.284302 181.929993,346.833679 
	C181.063217,346.023773 180.227448,344.814392 179.341354,343.294739 
z"/>
<path fill="#F5FBFB" opacity="1.000000" stroke="none" 
	d="
M191.598221,97.036133 
	C192.399399,99.029846 192.908493,101.202133 193.492340,103.693352 
	C192.174942,103.631973 190.930481,103.573990 190.313370,103.545242 
	C186.554520,110.456566 182.934753,117.112198 179.194870,123.988670 
	C169.619308,120.789299 162.141571,123.835297 155.374832,131.144714 
	C151.319977,129.016495 149.030060,133.188156 146.876068,135.901382 
	C144.875671,138.421127 137.699905,136.690231 141.277390,143.819336 
	C136.680954,142.599411 133.755386,143.376221 133.143860,148.111313 
	C133.027298,149.013733 131.724030,150.095932 130.728439,150.491455 
	C127.277802,151.862259 124.790283,153.550522 124.593201,157.892319 
	C124.543892,158.978485 121.336525,159.921295 119.182251,160.885971 
	C131.614914,139.348846 150.433640,125.774734 174.405319,119.285782 
	C178.138290,118.275291 180.435791,116.579460 182.173553,113.248703 
	C185.016785,107.799179 188.242050,102.548988 191.598221,97.036133 
z"/>
<path fill="#F5FBFB" opacity="1.000000" stroke="none" 
	d="
M118.539490,160.983063 
	C118.245270,165.930191 118.132385,171.067474 114.520721,175.476715 
	C112.977966,177.360153 112.649628,180.324448 112.027428,182.860886 
	C109.350166,193.775055 109.093979,204.925674 108.933182,216.082016 
	C108.926781,216.525665 108.633736,216.965210 108.059784,218.553940 
	C106.777588,216.654465 105.902428,215.357986 105.049561,213.713226 
	C104.250557,194.649277 108.668686,177.256088 118.539490,160.983063 
z"/>
<path fill="#F5FBFB" opacity="1.000000" stroke="none" 
	d="
M47.547211,199.896606 
	C46.554756,201.597672 45.557915,203.918350 43.799156,204.998901 
	C38.932148,207.989166 33.773209,210.513428 28.664145,213.092087 
	C27.747671,213.554642 26.518381,213.397400 25.213879,213.254776 
	C32.394539,208.638947 39.794846,204.294647 47.547211,199.896606 
z"/>
<path fill="#F5FBFB" opacity="1.000000" stroke="none" 
	d="
M81.851364,200.691772 
	C77.226852,203.713379 74.556770,199.882721 71.206375,197.749847 
	C68.595932,198.116974 65.709000,200.867157 64.429306,196.363525 
	C65.805679,195.040588 66.840546,194.082397 67.938263,193.058701 
	C68.001106,192.993195 68.125580,192.861023 68.125580,192.861023 
	C72.637001,195.377655 77.148422,197.894272 81.851364,200.691772 
z"/>
<path fill="#F5FBFB" opacity="1.000000" stroke="none" 
	d="
M102.211433,213.909332 
	C95.302216,211.405792 88.580643,208.843063 84.036438,202.404510 
	C90.187973,205.552719 96.376938,209.048401 102.769989,212.817444 
	C102.876503,213.397827 102.692459,213.638794 102.211433,213.909332 
z"/>
<path fill="#F5FBFB" opacity="1.000000" stroke="none" 
	d="
M62.998837,194.999252 
	C60.127678,196.306793 57.314083,197.769501 54.363880,198.863998 
	C52.581570,199.525223 50.587246,199.614960 48.269485,199.924179 
	C52.499859,197.089935 57.024696,194.041214 61.873333,191.648758 
	C63.337681,190.926208 65.700150,192.023849 67.888397,192.574371 
	C68.125580,192.861023 68.001106,192.993195 67.556145,193.018768 
	C65.740402,193.695984 64.369621,194.347610 62.998837,194.999252 
z"/>
<path fill="#F5FBFB" opacity="1.000000" stroke="none" 
	d="
M83.382980,201.590607 
	C83.170082,201.724747 82.774162,201.600235 82.196617,201.216431 
	C82.409988,201.082077 82.804970,201.207016 83.382980,201.590607 
z"/>
<path fill="#FBFBF4" opacity="1.000000" stroke="none" 
	d="
M208.000610,304.000000 
	C208.298645,302.161133 208.596695,300.322296 209.017212,297.727844 
	C210.131943,298.752258 211.041794,299.588379 212.210403,300.662292 
	C212.505112,300.143677 212.888062,299.672150 213.060486,299.133301 
	C214.141617,295.754272 215.848038,294.471375 219.739136,295.599701 
	C223.158020,296.591125 227.000031,296.445984 229.116470,292.379547 
	C229.354813,291.921631 230.100677,291.384949 230.552734,291.433167 
	C236.480789,292.065155 240.230194,288.148438 244.538284,285.148865 
	C246.376572,283.868958 248.981827,283.690582 251.658905,283.034119 
	C242.958115,291.267883 231.752380,295.251404 220.370102,299.025574 
	C217.807388,299.875397 215.028992,301.756348 213.577072,303.968201 
	C208.662994,311.454224 204.299927,319.301971 199.442062,327.229126 
	C199.741776,325.044128 200.325714,322.641418 200.909637,320.238739 
	C200.686813,317.720001 197.051620,315.001801 201.993439,312.219452 
	C202.608734,313.016449 203.235443,313.828278 204.384354,315.316467 
	C205.039764,313.047668 205.514572,311.404083 205.995300,309.380859 
	C206.001221,309.001221 206.000000,309.000000 206.369904,308.929260 
	C207.160080,307.239014 207.580338,305.619507 208.000610,304.000000 
z"/>
<path fill="#FBFBF4" opacity="1.000000" stroke="none" 
	d="
M252.396698,283.041687 
	C252.019608,282.268921 252.224030,281.341827 251.908752,280.652283 
	C250.417892,277.391541 251.040588,275.191284 254.584946,273.840393 
	C255.886658,273.344269 256.909973,272.117737 258.316986,271.025055 
	C259.630493,271.650726 261.055267,272.329407 262.851379,273.103577 
	C259.728058,276.464996 256.233398,279.730896 252.396698,283.041687 
z"/>
<path fill="#F5FBFB" opacity="1.000000" stroke="none" 
	d="
M283.010406,173.623962 
	C280.862427,169.470963 273.393768,169.658432 273.391083,163.156265 
	C273.390869,162.656906 272.682983,161.971390 272.139465,161.687973 
	C267.440155,159.237259 266.703430,155.361557 268.100586,150.264114 
	C275.177551,156.326248 279.583344,164.475159 283.010406,173.623962 
z"/>
<path fill="#F5FBFB" opacity="1.000000" stroke="none" 
	d="
M262.834808,143.707947 
	C258.874847,141.603653 254.756027,139.245026 250.710999,136.765976 
	C246.627563,134.263397 242.554901,131.732605 238.604156,129.029099 
	C236.905243,127.866516 235.525726,126.237198 233.988205,124.444435 
	C245.142944,128.149734 254.552979,134.842834 262.834808,143.707947 
z"/>
<path fill="#F5FBFB" opacity="1.000000" stroke="none" 
	d="
M231.650421,122.984993 
	C230.396393,124.090805 228.844711,124.987396 227.325089,125.865456 
	C223.168655,120.178795 216.680450,120.638916 211.101395,119.078049 
	C207.247864,117.999931 203.189148,117.655258 199.109589,116.621628 
	C210.233688,116.190468 221.054306,118.186516 231.650421,122.984993 
z"/>
<path fill="#F5FBFB" opacity="1.000000" stroke="none" 
	d="
M367.012634,163.591660 
	C367.018738,163.990463 366.624268,164.005096 366.427948,164.007202 
	C365.092407,160.288010 363.953186,156.566711 363.083374,152.516998 
	C363.901428,152.459427 364.450104,152.730286 364.998779,153.001144 
	C365.331146,154.421188 365.663513,155.841217 366.020691,157.928223 
	C366.363647,159.063568 366.681824,159.531937 367.000000,160.000305 
	C367.002197,161.064484 367.004395,162.128677 367.012634,163.591660 
z"/>
<path fill="#F5FBFB" opacity="1.000000" stroke="none" 
	d="
M268.111450,149.529144 
	C266.778809,148.494934 265.387787,147.138672 263.987671,145.418854 
	C265.336761,146.439209 266.694916,147.823151 268.111450,149.529144 
z"/>
<path fill="#FDFDFE" opacity="1.000000" stroke="none" 
	d="
M364.991608,152.628540 
	C364.450104,152.730286 363.901428,152.459427 363.051056,152.117432 
	C362.496277,151.556824 362.243225,151.067352 361.985413,150.292267 
	C362.981934,150.756439 363.983185,151.506195 364.991608,152.628540 
z"/>
<path fill="#F5FBFB" opacity="1.000000" stroke="none" 
	d="
M360.052551,145.322144 
	C360.562012,145.859375 361.058044,146.730026 361.337952,147.776367 
	C360.760925,147.186569 360.399994,146.421066 360.052551,145.322144 
z"/>
<path fill="#F5FBFB" opacity="1.000000" stroke="none" 
	d="
M193.883713,115.638641 
	C193.746704,115.033531 193.597473,114.055687 193.757950,113.059631 
	C194.002274,113.782921 193.936874,114.524422 193.883713,115.638641 
z"/>
<path fill="#FFFFFF" opacity="1.000000" stroke="none" 
	d="
M344.066315,107.641479 
	C343.018341,106.888420 342.037903,105.774590 341.028137,104.331604 
	C342.197723,101.854210 343.396637,99.705963 344.797791,97.278854 
	C350.924927,94.666512 349.822571,99.576561 350.264130,102.804138 
	C352.101288,102.580772 353.511749,102.409286 356.023468,102.103905 
	C356.438599,106.572372 356.846497,110.962845 357.254425,115.353310 
	C356.811676,115.582428 356.368896,115.811546 355.926147,116.040665 
	C353.182739,114.322433 349.606873,113.676254 348.970306,109.317902 
	C348.501923,106.110901 347.098724,104.745544 344.066315,107.641479 
z"/>
<path fill="#FFFFFF" opacity="1.000000" stroke="none" 
	d="
M369.959045,79.119949 
	C369.063202,80.156700 368.149292,80.813377 367.235382,81.470055 
	C367.047729,80.325584 366.860077,79.181107 366.672424,78.036621 
	C367.761932,78.271034 368.851440,78.505447 369.959045,79.119949 
z"/>
<path fill="#FDFDFE" opacity="1.000000" stroke="none" 
	d="
M348.000000,115.592819 
	C346.770264,113.875816 345.540527,111.751030 344.155396,109.313126 
	C348.441559,109.051544 347.821045,112.376793 348.000000,115.592819 
z"/>
<path fill="#FFFFFF" opacity="1.000000" stroke="none" 
	d="
M352.855255,77.847565 
	C354.015198,78.175858 354.929901,78.750793 355.844635,79.325722 
	C355.339539,79.831505 354.834412,80.337288 354.329315,80.843079 
	C353.756226,79.926788 353.183136,79.010490 352.855255,77.847565 
z"/>
<path fill="#FEFDFE" opacity="1.000000" stroke="none" 
	d="
M313.139648,74.676651 
	C308.463104,71.515930 303.927399,68.030624 299.195831,64.273140 
	C298.714386,62.614449 298.428772,61.227928 297.997253,59.132996 
	C300.358521,60.672504 302.005524,62.456444 303.912018,62.799843 
	C306.037140,63.182625 308.468872,62.491444 310.639130,61.840782 
	C313.538330,60.971573 316.715057,60.239944 317.519012,63.841118 
	C317.928162,65.673882 315.811462,68.070511 314.836517,70.212250 
	C314.449799,70.025642 314.063110,69.839035 313.676392,69.652435 
	C313.544403,71.218979 313.412415,72.785522 313.139648,74.676651 
z"/>
<path fill="#FEFDFE" opacity="1.000000" stroke="none" 
	d="
M320.399994,80.992432 
	C319.349426,80.215012 318.700043,79.429619 318.024414,78.323273 
	C319.742554,76.807098 321.353668,75.230759 323.280365,74.557014 
	C324.470673,74.140778 326.350616,74.768265 327.543823,75.523232 
	C329.043701,76.472237 330.277863,77.937408 331.387634,79.365601 
	C331.931488,80.065460 331.935364,81.184914 332.183624,82.114471 
	C331.144989,82.202133 329.415131,82.708817 329.174835,82.312477 
	C326.832336,78.448578 323.705200,80.567619 320.399994,80.992432 
z"/>
<path fill="#FEFDFE" opacity="1.000000" stroke="none" 
	d="
M331.308044,93.839325 
	C330.413055,93.189537 329.826813,92.378525 329.120178,91.284065 
	C330.122284,90.825287 331.244843,90.649956 332.367401,90.474632 
	C332.117218,91.542458 331.867035,92.610283 331.308044,93.839325 
z"/>
<path fill="#F5FBFB" opacity="1.000000" stroke="none" 
	d="
M332.765686,86.097290 
	C332.205566,86.666191 331.561249,86.925041 330.916931,87.183899 
	C330.822723,86.634911 330.728516,86.085922 330.634338,85.536934 
	C331.316711,85.620369 331.999115,85.703812 332.765686,86.097290 
z"/>
<path fill="#FBFBF4" opacity="1.000000" stroke="none" 
	d="
M359.822876,203.319092 
	C359.035553,204.503510 358.196106,205.349518 357.356659,206.195526 
	C357.001404,205.603027 356.646149,205.010529 356.290894,204.418015 
	C357.450867,203.938904 358.610840,203.459793 359.822876,203.319092 
z"/>
<path fill="#FCFBFC" opacity="1.000000" stroke="none" 
	d="
M63.218391,195.107498 
	C64.369621,194.347610 65.740402,193.695984 67.493301,193.084290 
	C66.840546,194.082397 65.805679,195.040588 64.385712,195.999695 
	C63.899403,195.677094 63.711849,195.415466 63.218391,195.107498 
z"/>
<path fill="#FDFDFE" opacity="1.000000" stroke="none" 
	d="
M367.228455,159.829346 
	C366.681824,159.531937 366.363647,159.063568 366.027618,158.297363 
	C366.492126,158.552505 366.974487,159.105469 367.228455,159.829346 
z"/>
<path fill="#FCFCFC" opacity="1.000000" stroke="none" 
	d="
M207.631409,304.071136 
	C207.580338,305.619507 207.160080,307.239014 206.370819,308.929871 
	C206.421967,307.381561 206.842102,305.761932 207.631409,304.071136 
z"/>
</svg>